<svg xmlns="http://www.w3.org/2000/svg" width="872" height="930" viewBox="0 0 872 930">
<defs><linearGradient id="sheet-option-01-bg" x1="14.644660940672622%" y1="14.644660940672622%" x2="85.35533905932738%" y2="85.35533905932738%"><stop offset="0" stop-color="#0f766e"/><stop offset="1" stop-color="#f59e0b"/></linearGradient><clipPath id="sheet-option-01-clip"><rect width="152" height="152" rx="34" ry="34"/></clipPath><linearGradient id="sheet-option-02-bg" x1="9.042397785550406%" y1="21.321178182447696%" x2="90.9576022144496%" y2="78.6788218175523%"><stop offset="0" stop-color="#14532d"/><stop offset="1" stop-color="#a3e635"/></linearGradient><clipPath id="sheet-option-02-clip"><rect width="152" height="152" rx="34" ry="34"/></clipPath><linearGradient id="sheet-option-03-bg" x1="21.321178182447696%" y1="9.042397785550406%" x2="78.6788218175523%" y2="90.9576022144496%"><stop offset="0" stop-color="#be123c"/><stop offset="1" stop-color="#fb7185"/></linearGradient><clipPath id="sheet-option-03-clip"><rect width="152" height="152" rx="34" ry="34"/></clipPath><radialGradient id="sheet-option-04-bg" cx="42%" cy="32%" r="78%"><stop offset="0" stop-color="#111827"/><stop offset="1" stop-color="#2563eb"/></radialGradient><clipPath id="sheet-option-04-clip"><rect width="152" height="152" rx="34" ry="34"/></clipPath><clipPath id="sheet-option-05-clip"><rect width="152" height="152" rx="34" ry="34"/></clipPath><linearGradient id="sheet-option-06-bg" x1="11.697777844051103%" y1="17.860619515673037%" x2="88.3022221559489%" y2="82.13938048432696%"><stop offset="0" stop-color="#0891b2"/><stop offset="1" stop-color="#34d399"/></linearGradient><linearGradient id="sheet-option-06-fg" x1="0" y1="0" x2="1" y2="1"><stop offset="0" stop-color="#ffffff"/><stop offset="1" stop-color="#e0f2fe"/></linearGradient><clipPath id="sheet-option-06-clip"><rect width="152" height="152" rx="34" ry="34"/></clipPath><linearGradient id="sheet-option-07-bg" x1="14.644660940672622%" y1="14.644660940672622%" x2="85.35533905932738%" y2="85.35533905932738%"><stop offset="0" stop-color="#111827"/><stop offset="1" stop-color="#0f766e"/></linearGradient><linearGradient id="sheet-option-07-fg" x1="0" y1="0" x2="1" y2="1"><stop offset="0" stop-color="#fbbf24"/><stop offset="1" stop-color="#ffffff"/></linearGradient><clipPath id="sheet-option-07-clip"><rect width="152" height="152" rx="34" ry="34"/></clipPath><linearGradient id="sheet-option-08-bg" x1="17.860619515673022%" y1="11.697777844051103%" x2="82.13938048432698%" y2="88.3022221559489%"><stop offset="0" stop-color="#7c2d12"/><stop offset="1" stop-color="#f97316"/></linearGradient><clipPath id="sheet-option-08-clip"><rect width="152" height="152" rx="34" ry="34"/></clipPath></defs>
<rect width="872" height="930" fill="#f5f7fb"/>
<text x="34" y="42" font-family="Inter, Arial, sans-serif" font-size="24" font-weight="850" fill="#111827">乔木 LLM 擂台 icon options</text>
<text x="34" y="68" font-family="Inter, Arial, sans-serif" font-size="14" fill="#64748b">Generated by QM Icon Studio CLI · 8 choices · source SVG 1024x1024</text>
<g transform="translate(34 92)">
  <rect width="252" height="252" rx="18" fill="#ffffff" stroke="#d8deea"/>
  <g transform="translate(50 28)">
    <rect width="152" height="152" rx="34" ry="34" fill="#f8fafc"/>
    <g clip-path="url(#sheet-option-01-clip)">
      <g transform="scale(0.1484375)"><rect width="1024" height="1024" fill="url(#sheet-option-01-bg)"/><g filter="drop-shadow(0 25.6px 35.84px rgba(15,23,42,0.16))"><path transform="translate(512 512) rotate(0) scale(22.6657277130882) translate(-12 -12)" d="M12 2c3 2 5 6 5 10l2.5 3-3 .5c-.5 1.5-1 2.5-1.5 3l-3-2-3 2c-.5-.5-1-1.5-1.5-3l-3-.5L7 12c0-4 2-8 5-10zm0 6.5A1.75 1.75 0 1012 12a1.75 1.75 0 000-3.5z" fill="#ffffff" fill-rule="evenodd"/></g></g>
    </g>
    <rect width="152" height="152" rx="34" ry="34" fill="none" stroke="#e2e8f0"/>
  </g>
  <text x="24" y="210" font-family="Inter, Arial, sans-serif" font-size="17" font-weight="800" fill="#111827">Option 01</text>
  <text x="24" y="233" font-family="Inter, Arial, sans-serif" font-size="12" fill="#64748b">icon: rocket · signal</text>
</g>
<g transform="translate(310 92)">
  <rect width="252" height="252" rx="18" fill="#ffffff" stroke="#d8deea"/>
  <g transform="translate(50 28)">
    <rect width="152" height="152" rx="34" ry="34" fill="#f8fafc"/>
    <g clip-path="url(#sheet-option-02-clip)">
      <g transform="scale(0.1484375)"><rect width="1024" height="1024" fill="url(#sheet-option-02-bg)"/><path d="M0 0h1024v389.12C737.28 491.52 286.72 122.88 0 327.68z" fill="#ffffff" opacity="0.14"/><g filter="drop-shadow(0 25.6px 35.84px rgba(15,23,42,0.20))"><path transform="translate(512 512) rotate(0) scale(23.748039636671546) translate(-12 -12)" d="M6 2l-4 6 10 14L22 8l-4-6H6z" fill="#f8fafc"/></g></g>
    </g>
    <rect width="152" height="152" rx="34" ry="34" fill="none" stroke="#e2e8f0"/>
  </g>
  <text x="24" y="210" font-family="Inter, Arial, sans-serif" font-size="17" font-weight="800" fill="#111827">Option 02</text>
  <text x="24" y="233" font-family="Inter, Arial, sans-serif" font-size="12" fill="#64748b">icon: diamond · meadow</text>
</g>
<g transform="translate(586 92)">
  <rect width="252" height="252" rx="18" fill="#ffffff" stroke="#d8deea"/>
  <g transform="translate(50 28)">
    <rect width="152" height="152" rx="34" ry="34" fill="#f8fafc"/>
    <g clip-path="url(#sheet-option-03-clip)">
      <g transform="scale(0.1484375)"><rect width="1024" height="1024" fill="url(#sheet-option-03-bg)"/><g filter="drop-shadow(0 25.6px 35.84px rgba(15,23,42,0.24))"><path transform="translate(512 512) rotate(0) scale(25.319957123835888) translate(-12 -12)" d="M12 8a4 4 0 100 8 4 4 0 000-8zm8.94 3A8.994 8.994 0 0013 3.06V1h-2v2.06A8.994 8.994 0 003.06 11H1v2h2.06A8.994 8.994 0 0011 20.94V23h2v-2.06A8.994 8.994 0 0020.94 13H23v-2h-2.06zM12 19c-3.87 0-7-3.13-7-7s3.13-7 7-7 7 3.13 7 7-3.13 7-7 7z" fill="#fff7ed"/></g></g>
    </g>
    <rect width="152" height="152" rx="34" ry="34" fill="none" stroke="#e2e8f0"/>
  </g>
  <text x="24" y="210" font-family="Inter, Arial, sans-serif" font-size="17" font-weight="800" fill="#111827">Option 03</text>
  <text x="24" y="233" font-family="Inter, Arial, sans-serif" font-size="12" fill="#64748b">icon: target · coral</text>
</g>
<g transform="translate(34 368)">
  <rect width="252" height="252" rx="18" fill="#ffffff" stroke="#d8deea"/>
  <g transform="translate(50 28)">
    <rect width="152" height="152" rx="34" ry="34" fill="#f8fafc"/>
    <g clip-path="url(#sheet-option-04-clip)">
      <g transform="scale(0.1484375)"><rect width="1024" height="1024" fill="url(#sheet-option-04-bg)"/><g filter="drop-shadow(0 25.6px 35.84px rgba(15,23,42,0.16))"><path transform="translate(512 512) rotate(-4) scale(26.86407449821631) translate(-12 -12)" d="M11.99 2C6.47 2 2 6.48 2 12s4.47 10 9.99 10C17.52 22 22 17.52 22 12S17.52 2 11.99 2zm6.93 6h-2.95c-.32-1.25-.78-2.45-1.38-3.56 1.84.63 3.37 1.91 4.33 3.56zM12 4.04c.83 1.2 1.48 2.53 1.91 3.96h-3.82c.43-1.43 1.08-2.76 1.91-3.96zM4.26 14C4.1 13.36 4 12.69 4 12s.1-1.36.26-2h3.38c-.08.66-.14 1.32-.14 2 0 .68.06 1.34.14 2H4.26zm.82 2h2.95c.32 1.25.78 2.45 1.38 3.56-1.84-.63-3.37-1.9-4.33-3.56zm2.95-8H5.08c.96-1.66 2.49-2.93 4.33-3.56C8.81 5.55 8.35 6.75 8.03 8zM12 19.96c-.83-1.2-1.48-2.53-1.91-3.96h3.82c-.43 1.43-1.08 2.76-1.91 3.96zM14.34 14H9.66c-.09-.66-.16-1.32-.16-2 0-.68.07-1.35.16-2h4.68c.09.65.16 1.32.16 2 0 .68-.07 1.34-.16 2zm.25 5.56c.6-1.11 1.06-2.31 1.38-3.56h2.95c-.96 1.65-2.49 2.93-4.33 3.56zM16.36 14c.08-.66.14-1.32.14-2 0-.68-.06-1.34-.14-2h3.38c.16.64.26 1.31.26 2s-.1 1.36-.26 2h-3.38z" fill="#f8fafc"/></g></g>
    </g>
    <rect width="152" height="152" rx="34" ry="34" fill="none" stroke="#e2e8f0"/>
  </g>
  <text x="24" y="210" font-family="Inter, Arial, sans-serif" font-size="17" font-weight="800" fill="#111827">Option 04</text>
  <text x="24" y="233" font-family="Inter, Arial, sans-serif" font-size="12" fill="#64748b">icon: globe · cobalt</text>
</g>
<g transform="translate(310 368)">
  <rect width="252" height="252" rx="18" fill="#ffffff" stroke="#d8deea"/>
  <g transform="translate(50 28)">
    <rect width="152" height="152" rx="34" ry="34" fill="#f8fafc"/>
    <g clip-path="url(#sheet-option-05-clip)">
      <g transform="scale(0.1484375)"><rect width="1024" height="1024" fill="#f8fafc"/><rect x="35.84" y="35.84" width="952.32" height="952.32" rx="56.32" fill="none" stroke="#ffffff" stroke-opacity="0.28" stroke-width="12.288"/><path d="M0 0h1024v389.12C737.28 491.52 286.72 122.88 0 327.68z" fill="#ffffff" opacity="0.14"/><g filter="drop-shadow(0 25.6px 35.84px rgba(15,23,42,0.20))"><path transform="translate(512 512) rotate(4) scale(22.213963262120885) translate(-12 -12)" d="M7 2v11h3v9l7-12h-4l4-8z" fill="#111827"/></g></g>
    </g>
    <rect width="152" height="152" rx="34" ry="34" fill="none" stroke="#e2e8f0"/>
  </g>
  <text x="24" y="210" font-family="Inter, Arial, sans-serif" font-size="17" font-weight="800" fill="#111827">Option 05</text>
  <text x="24" y="233" font-family="Inter, Arial, sans-serif" font-size="12" fill="#64748b">icon: bolt · steel</text>
</g>
<g transform="translate(586 368)">
  <rect width="252" height="252" rx="18" fill="#ffffff" stroke="#d8deea"/>
  <g transform="translate(50 28)">
    <rect width="152" height="152" rx="34" ry="34" fill="#f8fafc"/>
    <g clip-path="url(#sheet-option-06-clip)">
      <g transform="scale(0.1484375)"><rect width="1024" height="1024" fill="url(#sheet-option-06-bg)"/><g filter="drop-shadow(0 25.6px 35.84px rgba(15,23,42,0.24))"><path transform="translate(512 512) rotate(0) scale(23.869726191461087) translate(-12 -12)" d="M12 22C6.49 22 2 17.51 2 12S6.49 2 12 2s10 4.04 10 9c0 3.31-2.69 6-6 6h-1.77c-.28 0-.5.22-.5.5 0 .12.05.23.13.33.41.47.64 1.06.64 1.67 0 1.38-1.12 2.5-2.5 2.5zm-5.5-12c.83 0 1.5-.67 1.5-1.5S7.33 7 6.5 7 5 7.67 5 8.5 5.67 10 6.5 10zm3-4C10.33 6 11 5.33 11 4.5S10.33 3 9.5 3 8 3.67 8 4.5 8.67 6 9.5 6zm5 0c.83 0 1.5-.67 1.5-1.5S15.33 3 14.5 3 13 3.67 13 4.5 13.67 6 14.5 6zm3 4c.83 0 1.5-.67 1.5-1.5S18.33 7 17.5 7 16 7.67 16 8.5s.67 1.5 1.5 1.5z" fill="url(#sheet-option-06-fg)"/></g></g>
    </g>
    <rect width="152" height="152" rx="34" ry="34" fill="none" stroke="#e2e8f0"/>
  </g>
  <text x="24" y="210" font-family="Inter, Arial, sans-serif" font-size="17" font-weight="800" fill="#111827">Option 06</text>
  <text x="24" y="233" font-family="Inter, Arial, sans-serif" font-size="12" fill="#64748b">icon: palette · glass</text>
</g>
<g transform="translate(34 644)">
  <rect width="252" height="252" rx="18" fill="#ffffff" stroke="#d8deea"/>
  <g transform="translate(50 28)">
    <rect width="152" height="152" rx="34" ry="34" fill="#f8fafc"/>
    <g clip-path="url(#sheet-option-07-clip)">
      <g transform="scale(0.1484375)"><rect width="1024" height="1024" fill="url(#sheet-option-07-bg)"/><g filter="drop-shadow(0 25.6px 35.84px rgba(15,23,42,0.16))"><path transform="translate(512 512) rotate(0) scale(25.73100482585033) translate(-12 -12)" d="M9.4 16.6L4.8 12l4.6-4.6L8 6l-6 6 6 6 1.4-1.4zm5.2 0l4.6-4.6-4.6-4.6L16 6l6 6-6 6-1.4-1.4z" fill="url(#sheet-option-07-fg)"/></g></g>
    </g>
    <rect width="152" height="152" rx="34" ry="34" fill="none" stroke="#e2e8f0"/>
  </g>
  <text x="24" y="210" font-family="Inter, Arial, sans-serif" font-size="17" font-weight="800" fill="#111827">Option 07</text>
  <text x="24" y="233" font-family="Inter, Arial, sans-serif" font-size="12" fill="#64748b">icon: code · midnight</text>
</g>
<g transform="translate(310 644)">
  <rect width="252" height="252" rx="18" fill="#ffffff" stroke="#d8deea"/>
  <g transform="translate(50 28)">
    <rect width="152" height="152" rx="34" ry="34" fill="#f8fafc"/>
    <g clip-path="url(#sheet-option-08-clip)">
      <g transform="scale(0.1484375)"><rect width="1024" height="1024" fill="url(#sheet-option-08-bg)"/><path d="M0 0h1024v389.12C737.28 491.52 286.72 122.88 0 327.68z" fill="#ffffff" opacity="0.14"/><g filter="drop-shadow(0 25.6px 35.84px rgba(15,23,42,0.20))"><path transform="translate(512 512) rotate(0) scale(26.780499030391372) translate(-12 -12)" d="M12 17.27L18.18 21l-1.64-7.03L22 9.24l-7.19-.61L12 2 9.19 8.63 2 9.24l5.46 4.73L5.82 21z" fill="#fff7ed"/></g></g>
    </g>
    <rect width="152" height="152" rx="34" ry="34" fill="none" stroke="#e2e8f0"/>
  </g>
  <text x="24" y="210" font-family="Inter, Arial, sans-serif" font-size="17" font-weight="800" fill="#111827">Option 08</text>
  <text x="24" y="233" font-family="Inter, Arial, sans-serif" font-size="12" fill="#64748b">icon: star · ember</text>
</g>
</svg>
